<?xml version="1.0" encoding="UTF-8" standalone="no"?>
<svg width="485px" height="530px" viewBox="0 0 485 530" version="1.1" xmlns="http://www.w3.org/2000/svg" xmlns:xlink="http://www.w3.org/1999/xlink">
    <!-- Generator: Sketch 50 (54983) - http://www.bohemiancoding.com/sketch -->
    <title>reservamos</title>
    <desc>Created with Sketch.</desc>
    <defs>
        <linearGradient x1="50%" y1="-30.7599432%" x2="50%" y2="67.6819276%" id="linearGradient-1">
            <stop stop-color="#D0D5E1" offset="0%"></stop>
            <stop stop-color="#FFFFFF" offset="100%"></stop>
        </linearGradient>
        <radialGradient cx="64.3615544%" cy="-10.526109%" fx="64.3615544%" fy="-10.526109%" r="100%" gradientTransform="translate(0.643616,-0.105261),scale(0.933555,1.000000),rotate(90.000000),translate(-0.643616,0.105261)" id="radialGradient-2">
            <stop stop-color="#FFFFFF" offset="0%"></stop>
            <stop stop-color="#FFFFFF" offset="23.8101881%"></stop>
            <stop stop-color="#EEF1F5" offset="54.5360332%"></stop>
            <stop stop-color="#FFFFFF" offset="100%"></stop>
        </radialGradient>
    </defs>
    <g id="reservamos" stroke="none" stroke-width="1" fill="none" fill-rule="evenodd">
        <g transform="translate(12.000000, 12.000000)">
            <path d="M148.353121,212.906007 C148.353121,212.906007 218.226225,262.099692 294.739707,213.676628 C371.255191,165.253565 280.119666,6.49949693 221.793651,8.01071604 C163.467636,9.52393677 78.3659065,166.676713 148.353121,212.906007" id="Fill-3" fill="url(#linearGradient-1)" opacity="0.799999952"></path>
            <path d="M184.225965,226 C184.225965,226 80.0548626,277.94054 107.981081,326.737773 C135.909302,375.535007 287.247577,354.303691 258.726587,407.305997 C227.221728,465.857078 68.8923857,507 72.0464763,507 L314.422821,507 C320.731002,507 460.570364,337.533391 284.355826,319.767311 C65.5220146,297.706179 284.355826,226 284.355826,226 L184.225965,226 Z" id="Fill-1" fill="url(#radialGradient-2)"></path>
            <path d="M435.362018,246.220802 C502.405974,210.382322 422.550053,92.8878144 371.444102,94.0079548 C320.336152,95.1280951 245.766915,211.434332 307.090458,245.647707 C307.090458,245.647707 368.316063,282.055274 435.362018,246.220802 Z" id="Fill-8" fill="url(#linearGradient-1)" opacity="0.900000036"></path>
            <path d="M411.537752,46 C411.829169,44.7082323 412,43.3704016 412,41.9885106 C412,32.1210077 404.117663,24.1220618 394.398392,24.1220618 C392.639839,24.1220618 390.943589,24.390429 389.341799,24.8790977 C385.718175,15.0296195 376.394829,8 365.429498,8 C351.320879,8 339.88526,19.6098872 339.88526,33.9274797 C339.88526,34.079688 339.903348,34.2258881 339.907368,34.3740909 C338.874343,34.1037209 337.809163,33.9134605 336.689718,33.9134605 C329.932855,33.9134605 324.456219,39.2567724 324,46 L411.537752,46 Z" id="Fill-11" fill="#F0E4F6" opacity="0.800000012"></path>
            <path d="M95,26 C94.6377112,24.2272265 93.1626784,22.8976464 91.3950277,22.8976464 C91.3950277,18.947533 88.3991783,15.7496286 84.7046292,15.7496286 C84.6787514,15.5097349 84.7046292,15.2698413 84.7046292,15.0238486 C84.7046292,6.72718743 78.408369,0 70.6430477,0 C63.9327432,0 58.3272204,5.02760185 56.9278302,11.7446243 C56.8083944,11.7385253 56.7009021,11.7100633 56.5814663,11.7100633 C51.8418534,11.7100633 48,15.8126515 48,20.8768473 C48,22.7736336 48.539452,24.5382751 49.4630892,26 L95,26 Z" id="Fill-13" fill="#F0E4F6" opacity="0.800000012"></path>
            <path d="M135,86 C134.637711,84.2272265 133.162678,82.8976464 131.395028,82.8976464 C131.395028,78.947533 128.399178,75.7496286 124.704629,75.7496286 C124.678751,75.5097349 124.704629,75.2698413 124.704629,75.0238486 C124.704629,66.7271874 118.408369,60 110.643048,60 C103.932743,60 98.3272204,65.0276018 96.9278302,71.7446243 C96.8083944,71.7385253 96.7009021,71.7100633 96.5814663,71.7100633 C91.8418534,71.7100633 88,75.8126515 88,80.8768473 C88,82.7736336 88.539452,84.5382751 89.4630892,86 L135,86 Z" id="Fill-13" fill="#F0E4F6" opacity="0.349999994"></path>
            <path d="M252.19185,492 L244,491.767602 C248.805699,487.88971 253.815047,483.66322 258.079681,480 L266,480.519941 C261.689446,484.22255 257.045467,488.084687 252.19185,492" id="Fill-15" fill="#DCDFE8" opacity="0.455223881"></path>
            <path d="M282.66116,466.996005 L274,467 C278.647053,462.703288 283.118515,458.340658 287.030534,454.301629 L296,454 C292.012436,458.120928 287.389884,462.625384 282.66116,466.996005" id="Fill-17" fill="#DCDFE8" opacity="0.628789646"></path>
            <path d="M308.603549,438.760415 L300,439 C303.958664,434.050579 308.198956,428.566085 310.961691,424.023958 L319,424 C316.104384,428.75975 312.720877,433.613337 308.603549,438.760415" id="Fill-19" fill="#DCDFE8" opacity="0.615555037"></path>
            <path d="M324.297665,409.29878 L318,410 C319.433852,405.445122 320.163424,401.085366 320.163424,397.036585 C320.163424,395.780488 320.093385,394.528455 319.955253,393.321138 L325.536965,392 C325.702335,393.449187 326,395.538618 326,397.036585 C326,401.73374 325.92607,404.128049 324.297665,409.29878" id="Fill-21" fill="#DCDFE8"></path>
            <path d="M314.395186,377 C311.395842,373.026052 307.224726,369.230461 302,365.719439 L306.815098,362 C312.589278,365.87976 316.600875,368.440882 320,372.945892 L314.395186,377 Z" id="Fill-23" fill="#DCDFE8"></path>
            <path d="M286.237073,359 C281.397704,356.755942 276.087922,354.623058 270,352.473704 L275.305861,348 C281.564308,350.209059 285.994027,351.991952 291,354.312184 L286.237073,359 Z" id="Fill-25" fill="#DCDFE8"></path>
            <path d="M251.185059,348 C246.130164,346.544601 240.508772,345.023882 234,343.34803 L237.620826,338 C244.183079,339.6881 249.891624,341.233313 255,342.703001 L251.185059,348 Z" id="Fill-27" fill="#DCDFE8"></path>
            <path d="M217.436963,337 C211.529869,335.632597 205.68441,334.276668 200,332.89779 L204.272752,328 C209.93728,329.371228 216.112788,330.805567 222,332.169146 L217.436963,337 Z" id="Fill-29" fill="#DCDFE8"></path>
            <path d="M181.234062,328 C174.588766,326.118582 168.950695,324.31273 164,322.475877 L169.103666,318 C173.903377,319.780663 179.509662,321.576826 186,323.41368 L181.234062,328 Z" id="Fill-31" fill="#DCDFE8"></path>
            <path d="M148.040973,315 C141.108908,310.54534 136.74616,304.040745 136,298 L142.44678,298.491096 C142.972301,302.751145 147.610399,307.520975 153,310.983116 L148.040973,315 Z" id="Fill-33" fill="#DCDFE8"></path>
            <path d="M146.979633,283 L142,279.551185 C145.1222,275.268939 149.480652,270.710867 154.955193,266 L159,270.460838 C153.875764,274.870083 149.830957,279.088829 146.979633,283" id="Fill-35" fill="#DCDFE8"></path>
            <path d="M173.15215,259 L168,255.362774 C172.565499,252.23029 177.166916,249.292383 182.662277,246 L188,249.515857 C182.612391,252.744665 177.615883,255.934944 173.15215,259" id="Fill-37" fill="#DCDFE8" opacity="0.762010261"></path>
            <path d="M235.989064,226 L230,222.095584 C235.206167,219.412987 240.126389,216.676364 245.622445,214 L252,217.981299 C246.543385,220.638961 241.155791,223.338182 235.989064,226" id="Fill-41" fill="#DCDFE8" opacity="0.115263526"></path>
            <path d="M269.110885,210 L262,206.421815 C272.311292,201.960153 277.283825,200.026162 277.348932,200 L286,202.934192 C285.934893,202.960354 279.326551,205.582612 269.110885,210" id="Fill-43" fill="#DCDFE8" opacity="0.0700000003"></path>
            <path d="M70.6467775,100.008006 C40.4096443,100.716509 0.00801142829,154.738851 0,195.207574 L0,195.239597 C0.00400571414,210.022089 5.40170552,222.987291 18.6546108,230.886898 C18.6546108,230.886898 68.1211747,262.3092 122.286441,231.381249 C176.195342,200.595398 112.546547,100.006004 71.2336146,100 C71.0373346,100 70.8430575,100.004003 70.6467775,100.008006" id="Fill-6" fill="url(#linearGradient-1)" opacity="0.799999952"></path>
            <polygon id="Fill-4-Copy" fill="#EDCEDF" points="222 227.410238 215.777915 222.487377 208.307225 227.080645 202.076521 222 194.672325 225.629032 201.430054 231.308088 194 235.875643 199.798496 241.511454 207.642289 236.530154 214.150051 242 221.311667 237.686068 214.530542 232.155446"></polygon>
            <g id="Group" transform="translate(159.000000, 151.000000)" fill="#C4CAD9" opacity="0.498775653">
                <path d="M31.2948164,42.0414272 C30.2429764,42.0414272 29.2200164,41.5029272 28.6576164,40.5369272 L20.0088164,25.7004272 C19.2336164,24.3729272 19.5999364,22.6824272 20.8539364,21.7794272 C22.8101764,20.3649272 27.9584164,15.7644272 28.2502564,11.5644272 C28.3612164,9.95342723 27.7349764,8.55692723 26.2772964,7.16342723 C22.1352964,3.20342723 14.3483364,10.4079272 14.2708164,10.4829272 C13.0654564,11.6319272 11.1380964,11.6019272 9.97225643,10.4064272 C8.80641643,9.21392723 8.84137643,7.31642723 10.0482564,6.16442723 C19.5132964,-2.84607277 27.3610564,-0.152072775 30.5074564,2.85392723 C33.2373764,5.46092723 34.5536964,8.62292723 34.3135364,11.9919272 C33.9168164,17.6049272 29.3765764,22.4334272 26.5630564,24.9129272 L33.9259364,37.5459272 C34.7634564,38.9814272 34.2633764,40.8159272 32.8072164,41.6409272 C32.3299364,41.9124272 31.8085764,42.0414272 31.2948164,42.0414272" id="Fill-6"></path>
                <path d="M37.8768859,48.3105297 C37.6732059,49.9275297 36.1820859,51.0765297 34.5435259,50.8770297 C32.9049659,50.6775297 31.7406459,49.2060297 31.9428059,47.5890297 C32.1449659,45.9705297 33.6376059,44.8230297 35.2746459,45.0225297 C36.9132059,45.2205297 38.0790459,46.6935297 37.8768859,48.3105297" id="Fill-8"></path>
                <path d="M19.7344152,57.8399998 C19.2768952,57.8399998 18.8163352,57.7049998 18.4150552,57.4244998 L10.2952152,51.7304998 C9.3467352,51.0644998 9.0594552,49.7999998 9.6279352,48.7979998 C10.2252952,47.7314998 11.7604952,44.2139998 10.9670552,42.1559998 C10.7952952,41.7089998 10.4244152,41.0654998 9.1916952,40.6379998 C6.6168152,39.7454998 4.4234552,44.8604998 4.4021752,44.9129998 C3.9385752,46.0664998 2.6146552,46.6364998 1.4472952,46.1789998 C0.276895204,45.7244998 -0.300704796,44.4254998 0.156815204,43.2689998 C1.5202552,39.8264998 5.2731352,34.5089998 10.7071352,36.3929998 C12.9187352,37.1624998 14.4843352,38.6069998 15.2367352,40.5719998 C16.3812952,43.5644998 15.3613752,47.0504998 14.4904152,49.1519998 L21.0568152,53.7554998 C22.0828152,54.4754998 22.3229752,55.8794998 21.5948952,56.8934998 C21.1510552,57.5099998 20.4472952,57.8399998 19.7344152,57.8399998" id="Fill-10"></path>
                <path d="M27.1477268,60.5569084 C27.1978868,61.7404084 26.2661268,62.7409084 25.0653268,62.7904084 C23.8660468,62.8399084 22.8522068,61.9204084 22.8020468,60.7354084 C22.7503668,59.5519084 23.6836468,58.5514084 24.8844468,58.5019084 C26.0837268,58.4524084 27.0975668,59.3719084 27.1477268,60.5569084" id="Fill-12"></path>
            </g>
        </g>
    </g>
</svg>